<svg width="75" height="75" viewBox="0 0 75 75" fill="none" xmlns="http://www.w3.org/2000/svg">
<path d="M50.75 35.9689L55.6562 31.0626L43.9375 19.3439L39.0312 24.2501L26.0938 11.3439C23.6563 8.90637 19.6875 8.90637 17.25 11.3439L11.3125 17.2814C8.875 19.7189 8.875 23.6876 11.3125 26.1251L24.2188 39.0314L9.375 53.9064V65.6251H21.0938L35.9688 50.7501L48.875 63.6564C51.8438 66.6251 55.8437 65.5314 57.7187 63.6564L63.6563 57.7189C66.0938 55.2814 66.0938 51.3126 63.6563 48.8751L50.75 35.9689ZM28.6875 34.5939L15.75 21.6876L21.6562 15.7501L25.625 19.7189L21.9375 23.4376L26.3438 27.8439L30.0625 24.1251L34.5938 28.6564L28.6875 34.5939ZM53.3125 59.2501L40.4062 46.3439L46.3438 40.4064L50.875 44.9376L47.1562 48.6564L51.5625 53.0626L55.2812 49.3439L59.25 53.3126L53.3125 59.2501Z" fill="#6E00FF"/>
<path d="M64.7188 22C65.9375 20.7812 65.9375 18.8125 64.7188 17.5937L57.4063 10.2812C55.9375 8.81245 53.9062 9.37495 53 10.2812L47.2812 16L59 27.7187L64.7188 22Z" fill="#6E00FF"/>
</svg>
