<svg width="30" height="30" viewBox="0 0 30 30" fill="none" xmlns="http://www.w3.org/2000/svg">
<path d="M27.9888 7.47055C26.6474 5.17253 24.8279 3.35304 22.5298 2.01173C20.2313 0.670484 17.7222 0 15.0005 0C12.2791 0 9.76916 0.670484 7.47106 2.01173C5.17283 3.35283 3.35332 5.17232 2.01194 7.47055C0.670487 9.76891 0 12.2788 0 15C0 17.7213 0.670692 20.2308 2.01173 22.5293C3.35305 24.8273 5.17255 26.6468 7.47079 27.9883C9.76916 29.3294 12.2789 30 15.0002 30C17.7216 30 20.2315 29.3294 22.5298 27.9883C24.8279 26.6473 26.6473 24.8273 27.9885 22.5293C29.3296 20.231 30 17.7212 30 15C30.0001 12.2785 29.3296 9.76857 27.9888 7.47055ZM15.0003 2.18754C18.2293 2.18754 21.0484 3.25521 23.4572 5.39048L23.213 5.73205C23.1154 5.86901 22.8713 6.13239 22.4808 6.52321C22.0902 6.91369 21.6638 7.28502 21.2016 7.63651C20.739 7.98814 20.1111 8.38847 19.3165 8.83772C18.5222 9.28697 17.6759 9.68107 16.7774 10.0196C15.2801 7.25889 13.6787 4.77192 11.9729 2.55852C13.0017 2.31116 14.0107 2.18754 15.0003 2.18754ZM4.96137 7.05031C6.21129 5.47511 7.73451 4.26398 9.53157 3.41775C11.1461 5.56616 12.7345 8.02727 14.2972 10.8006C10.3388 11.8423 6.3936 12.3631 2.46126 12.3629C2.87815 10.3969 3.71145 8.62585 4.96137 7.05031ZM3.04698 19.6195C2.47398 18.1547 2.18755 16.6147 2.18755 15C2.18755 14.8176 2.19425 14.6809 2.20711 14.5898C6.92091 14.5898 11.3026 13.9845 15.352 12.7733C15.7688 13.5806 16.1139 14.3032 16.3873 14.9414C16.3345 14.9674 16.2505 14.9966 16.1333 15.0292C16.0157 15.0618 15.9313 15.0843 15.8787 15.0976L15.1562 15.3514C14.6612 15.5338 14.0133 15.8464 13.2128 16.2888C12.4121 16.732 11.5625 17.259 10.664 17.8712C9.76554 18.4834 8.83776 19.2939 7.88084 20.3033C6.92378 21.3124 6.11976 22.3961 5.4687 23.5548C4.42702 22.3961 3.61985 21.0839 3.04698 19.6195ZM15.0003 27.8127C11.9533 27.8127 9.23194 26.836 6.83601 24.883L7.12901 25.098C7.58469 24.0951 8.25518 23.1315 9.14081 22.2072C10.0263 21.2829 10.8791 20.5371 11.6994 19.9705C12.5197 19.4045 13.4116 18.8707 14.3753 18.3688C15.3388 17.8678 15.996 17.5485 16.3479 17.4122C16.6995 17.2755 16.9795 17.1678 17.1878 17.0896L17.2267 17.0699H17.266C18.5417 20.4163 19.4536 23.6587 20.0002 26.7967C18.3856 27.4741 16.7192 27.8125 15.0003 27.8127ZM25.7821 21.9239C24.8185 23.4149 23.6138 24.6489 22.1689 25.6251C21.6346 22.6304 20.8017 19.5767 19.6686 16.4649C22.2597 16.0608 24.9225 16.25 27.6569 17.0309C27.3703 18.8018 26.7453 20.4331 25.7821 21.9239ZM27.6175 14.8243C27.4874 14.7984 27.3244 14.7688 27.1292 14.7365C26.9339 14.7041 26.6961 14.6649 26.4161 14.6193C26.1365 14.5737 25.8235 14.5315 25.4787 14.4924C25.1336 14.4533 24.7658 14.4176 24.3748 14.3851C23.9844 14.3524 23.5676 14.3266 23.1251 14.3069C22.6819 14.2874 22.2329 14.2776 21.7771 14.2776C21.3218 14.2776 20.8428 14.2908 20.3418 14.3167C19.8406 14.3423 19.3557 14.3884 18.8871 14.4534C18.8477 14.3882 18.799 14.2807 18.7405 14.1309C18.682 13.9813 18.6393 13.8672 18.614 13.7891C18.3663 13.2422 18.0798 12.6237 17.7539 11.9337C18.6524 11.5689 19.5088 11.1491 20.3231 10.6738C21.1366 10.1984 21.7872 9.77548 22.2758 9.40442C22.7641 9.03296 23.2263 8.63906 23.6624 8.22251C24.0988 7.80589 24.3816 7.51632 24.5123 7.3535C24.6427 7.19041 24.7663 7.03102 24.8833 6.87497L24.903 6.85527C26.8039 9.17299 27.7744 11.8421 27.813 14.8632L27.6175 14.8243Z" fill="black"/>
</svg>
