<svg width="75" height="75" viewBox="0 0 75 75" fill="none" xmlns="http://www.w3.org/2000/svg">
<path d="M21.875 15.625H53.125V21.875H59.375V9.375C59.375 5.9375 56.5625 3.15625 53.125 3.15625L21.875 3.125C18.4375 3.125 15.625 5.9375 15.625 9.375V21.875H21.875V15.625ZM48.1562 51.8438L62.5 37.5L48.1562 23.1562L43.75 27.5938L53.6562 37.5L43.75 47.4062L48.1562 51.8438ZM31.25 47.4062L21.3438 37.5L31.25 27.5938L26.8438 23.1562L12.5 37.5L26.8438 51.8438L31.25 47.4062ZM53.125 59.375H21.875V53.125H15.625V65.625C15.625 69.0625 18.4375 71.875 21.875 71.875H53.125C56.5625 71.875 59.375 69.0625 59.375 65.625V53.125H53.125V59.375Z" fill="#6E00FF"/>
</svg>
